<?xml version="1.0" encoding="UTF-8" standalone="no"?>
<svg xmlns="http://www.w3.org/2000/svg" height="165.77mm" width="165.77mm" version="1.1"
     xmlns:xlink="http://www.w3.org/1999/xlink" viewBox="0 0 587.36452 587.36451">
    <defs>
        <path id="a"
              fill="white"
              stroke="white"
              stroke-width="20"
              d="m11 665q0 7 11 18h191q194-2 218-6 151-28 151-162 0-27-9-47-19-55-89-96l-10-6h1q145-49 145-188 0-63-52-109t-148-63q-27-5-213-7h-185q-11 11-11 19 0 17 40 17 28 2 37 4t14 13q5 18 5 289t-5 289q-5 10-14 13t-37 5h-5q-35 0-35 17zm131-324q0-212-1-253t-7-51q-1-1-1-2h107l-7 13-4 13v562l4 12 7 13h-107l5-9q4-18 4-298zm142 29q81 8 107 41t26 97q0 43-11 73t-28 43-31 19-27 5q-22 0-42-13-11-7-12-24t-2-119v-122h20zm262 145q0 36-15 62t-37 40-40 18-32 6l-11 2 9-13q19-26 25-51t7-69v-6q0-23-1-37t-10-37-26-47q5 0 24 8t44 22 44 42 19 60zm39-330q0 36-15 64t-36 45-44 26-37 14-17 3l-1-1 5-6q5-5 12-15t15-27 12-42 5-58q0-43-10-78t-20-48-12-14q0-1 2-1 6 0 26 7t47 21 47 44 21 66zm-136-1q0 132-91 148-3 0-23 1t-33 2h-38v-136q2-131 6-142 5-7 19-14 11-6 35-6 125 0 125 147z"/>
        <mask id="m">
            <rect x="0" y="0" width="1000" height="1000" fill="white"/>
        </mask>
    </defs>
    <g transform="translate(-108.63 -152.32)" mask="url(#m)">
        <g transform="matrix(.57673 -.23889 .23889 .57673 432.14 218.11)">
            <path fill="#256B9C"
                  d="m176.23 679.07-360.07 149.15-360.07-149.15-149.15-360.07 149.15-360.07 360.07-149.15 360.07 149.15 149.15 360.07z"/>
        </g>
        <g transform="matrix(.49398 0 0 -.49398 274.77 625.32)">
            <g transform="matrix(1.0644 0 0 1.0644 -77.611 .064352)">
                <use xlink:href="#a" fill="white" height="100%" width="100%" y="0" x="0"/>
            </g>
        </g>
    </g>
</svg>
